<svg xmlns="http://www.w3.org/2000/svg" width="27.81" height="27.105" viewBox="0 0 27.81 27.105">
  <path id="Icon_awesome-arrow-right" data-name="Icon awesome-arrow-right" d="M15.986,4.463,14.608,3.085a1.484,1.484,0,0,0-2.1,0L.438,15.145a1.484,1.484,0,0,0,0,2.1L12.5,29.315a1.484,1.484,0,0,0,2.1,0l1.378-1.378a1.491,1.491,0,0,0-.025-2.129L8.482,18.683H26.32a1.486,1.486,0,0,0,1.49-1.49V15.207a1.486,1.486,0,0,0-1.49-1.49H8.482l7.479-7.126A1.481,1.481,0,0,0,15.986,4.463Z" transform="translate(0 -2.647)" fill="#fff"/>
</svg>
