<svg xmlns="http://www.w3.org/2000/svg" width="17.381" height="16.941" viewBox="0 0 17.381 16.941">
  <path id="Icon_awesome-arrow-right" data-name="Icon awesome-arrow-right" d="M7.39,3.782l.861-.861a.927.927,0,0,1,1.315,0l7.541,7.537a.927.927,0,0,1,0,1.315L9.566,19.314a.927.927,0,0,1-1.315,0l-.861-.861a.932.932,0,0,1,.016-1.331l4.675-4.453H.931A.929.929,0,0,1,0,11.738V10.5a.929.929,0,0,1,.931-.931H12.08L7.405,5.113A.925.925,0,0,1,7.39,3.782Z" transform="translate(0 -2.647)" fill="#fff"/>
</svg>
