<svg id="send_2_" data-name="send (2)" xmlns="http://www.w3.org/2000/svg" width="74.357" height="74.357" viewBox="0 0 74.357 74.357">
  <path id="Path_2388" data-name="Path 2388" d="M74.357,37.178A37.178,37.178,0,1,1,37.178,0,37.178,37.178,0,0,1,74.357,37.178Zm0,0" fill="#f05d27"/>
  <path id="Path_2389" data-name="Path 2389" d="M178.943,137.741c0-.844-.031-1.681-.086-2.512l-17.581-17.581-38.921,39.126,18.121,18.121c.428.014.857.024,1.288.024A37.178,37.178,0,0,0,178.943,137.741Zm0,0" transform="translate(-104.586 -100.563)" fill="#be3c10"/>
  <path id="Path_2390" data-name="Path 2390" d="M122.355,156.774l19.717-4.313,19.2-34.813-34.813,19.2Zm0,0" transform="translate(-104.586 -100.563)" fill="#cdd2e1"/>
  <path id="Path_2391" data-name="Path 2391" d="M122.355,156.774l19.717-4.313,19.2-34.813Zm0,0" transform="translate(-104.586 -100.563)" fill="#bec3d2"/>
  <path id="Path_2392" data-name="Path 2392" d="M128.638,117.648,84.172,130.9l13.248,13.247Zm0,0" transform="translate(-71.948 -100.563)" fill="#fff"/>
  <path id="Path_2393" data-name="Path 2393" d="M234.412,117.648l-13.248,44.466-13.247-13.248Zm0,0" transform="translate(-177.722 -100.563)" fill="#e9edf5"/>
  <path id="Path_2394" data-name="Path 2394" d="M122.355,156.774l7.7-12.631,31.218-26.494-26.494,31.218Zm0,0" transform="translate(-104.586 -100.563)" fill="#afb4c8"/>
  <path id="Path_2395" data-name="Path 2395" d="M122.355,156.774l12.426-7.908,26.494-31.218Zm0,0" transform="translate(-104.586 -100.563)" fill="#9196aa"/>
</svg>
